<svg xmlns="http://www.w3.org/2000/svg" viewBox="339 111 780 780" width="64" height="64">
  <g fill="#FFFFFF">
    <path d="M 500.00 547.00 C 499.78 547.14 500.00 548.00 500.00 548.00 C 497.24 553.32 493.75 559.76 490.77 564.77 C 487.79 569.78 484.29 575.83 481.31 580.31 C 478.32 584.78 476.13 594.57 472.00 592.00 C 473.18 598.54 466.98 605.41 463.30 612.30 C 459.63 619.20 455.08 626.41 451.30 633.30 C 447.53 640.20 443.58 646.92 439.77 653.77 C 435.96 660.62 431.33 667.89 427.77 674.77 C 424.21 681.65 419.75 688.43 415.92 694.92 C 412.10 701.42 408.09 710.07 403.92 715.92 C 399.76 721.78 397.16 733.22 392.00 732.00 C 393.29 736.17 390.03 741.04 387.30 745.31 C 384.58 749.57 381.99 755.51 379.30 759.30 C 376.62 763.10 374.37 772.18 372.00 767.00 C 371.09 780.30 352.72 794.69 363.00 811.00 C 363.23 811.36 363.00 812.00 363.00 812.00 C 371.73 821.94 382.98 823.58 396.00 823.00 C 409.02 822.42 427.20 823.56 440.00 823.00 C 452.80 822.44 468.82 825.57 478.77 818.77 C 488.72 811.97 490.11 801.38 496.25 792.25 C 502.38 783.11 506.70 773.43 512.22 764.22 C 517.75 755.02 522.70 746.36 528.08 737.08 C 533.45 727.79 537.93 717.98 544.08 709.08 C 550.22 700.18 553.69 689.32 559.30 680.30 C 564.90 671.28 570.10 662.63 575.25 653.25 C 580.40 643.87 585.97 634.72 591.23 625.23 C 596.49 615.74 601.67 606.52 607.23 597.23 C 612.79 587.94 617.58 578.33 622.75 569.75 C 627.91 561.16 633.85 550.37 639.08 542.08 C 644.30 533.78 648.23 520.62 655.00 519.00 C 657.45 505.74 668.44 490.73 675.75 476.75 C 683.06 462.78 692.63 449.39 700.08 435.08 C 707.53 420.77 716.60 407.42 724.00 393.00 C 726.37 395.41 726.29 392.54 729.00 396.00 C 727.78 393.93 725.31 391.85 726.00 390.00 C 730.51 393.61 733.54 399.76 736.75 405.25 C 739.97 410.73 743.30 416.77 746.77 422.23 C 750.24 427.69 753.18 433.79 756.77 439.23 C 760.36 444.67 762.64 450.23 766.30 455.70 C 769.97 461.17 772.62 467.11 776.30 472.70 C 779.99 478.29 781.97 483.64 787.75 488.25 C 793.53 492.86 801.01 492.99 809.00 493.00 C 816.99 493.01 827.76 492.65 836.00 493.00 C 844.24 493.35 855.00 492.07 863.00 493.00 C 871.00 493.93 878.76 489.09 883.00 490.00 C 891.69 478.59 901.54 459.95 892.31 445.70 C 883.07 431.44 877.75 418.60 869.30 404.70 C 860.86 390.79 853.93 377.88 845.92 364.08 C 837.92 350.27 830.72 337.06 822.77 323.23 C 814.82 309.40 807.03 295.63 799.31 281.70 C 791.58 267.76 783.58 254.89 776.25 240.75 C 768.93 226.61 759.90 214.58 753.25 199.75 C 746.61 184.92 733.87 169.67 715.00 176.00 C 717.14 178.96 707.87 185.19 705.92 189.92 C 703.98 194.66 699.81 205.52 696.00 203.00 C 697.30 208.81 691.60 215.14 688.30 221.30 C 685.01 227.47 680.94 234.46 677.30 240.30 C 673.67 246.15 670.17 254.06 666.30 259.30 C 662.44 264.54 659.91 275.80 655.00 274.00 C 654.66 282.27 646.75 297.39 639.00 302.00 C 639.66 304.42 638.47 312.53 635.00 309.00 C 636.04 315.83 629.09 323.06 625.31 330.30 C 621.52 337.55 616.98 345.69 612.77 352.77 C 608.56 359.85 604.05 368.03 599.77 374.77 C 595.49 381.51 592.59 392.85 586.00 392.00 C 588.61 399.77 579.78 408.88 575.31 417.30 C 570.83 425.73 565.25 435.11 560.75 443.75 C 556.25 452.39 549.85 460.66 545.31 469.31 C 540.76 477.95 535.60 487.24 530.30 495.30 C 525.01 503.37 521.39 514.12 515.31 521.31 C 509.22 528.49 507.86 542.08 500.00 547.00 Z"/>
  </g>
  <g fill="#22C55E">
    <path d="M 947.00 768.00 C 948.11 769.71 949.03 771.24 950.00 773.00 C 957.08 785.84 963.48 794.32 970.23 807.77 C 976.98 821.22 988.35 827.80 1004.00 826.00 C 1019.65 824.20 1041.68 827.02 1057.00 826.00 C 1072.32 824.98 1084.86 830.28 1095.75 816.75 C 1106.63 803.21 1092.83 791.32 1088.00 779.00 C 1087.83 778.57 1088.00 778.00 1088.00 778.00 C 1080.31 773.19 1078.68 760.15 1072.75 753.25 C 1066.83 746.34 1062.92 735.76 1057.77 728.23 C 1052.62 720.70 1048.59 711.46 1044.00 705.00 C 1043.08 703.70 1042.74 702.42 1042.00 701.00 C 1036.09 692.65 1031.18 683.10 1025.77 674.23 C 1020.36 665.36 1015.66 656.63 1010.30 647.70 C 1004.94 638.76 1000.11 630.37 994.75 621.25 C 989.40 612.12 984.27 604.73 978.92 595.08 C 973.57 585.44 969.32 579.12 963.25 568.75 C 957.18 558.39 942.90 558.30 931.00 559.00 C 919.10 559.70 902.73 558.59 891.03 558.98 C 879.32 559.37 866.33 558.67 855.25 558.80 C 844.16 558.94 829.29 556.92 822.25 567.25 C 815.22 577.59 812.65 583.06 806.92 593.92 C 801.18 604.77 797.05 608.34 791.77 620.77 C 786.49 633.20 810.33 629.87 821.00 630.00 C 831.67 630.13 850.84 628.40 860.92 632.08 C 871.00 635.75 874.14 647.11 879.70 655.30 C 885.25 663.50 890.08 673.33 895.23 681.77 C 900.38 690.21 906.53 699.36 911.08 707.92 C 915.63 716.48 924.87 726.06 923.00 734.00 C 929.92 734.54 931.87 743.54 935.70 749.31 C 939.52 755.07 943.17 762.07 947.00 768.00 Z"/>
  </g>
</svg>
