<svg xmlns="http://www.w3.org/2000/svg" xmlns:v="https://svgstorm.com"
viewBox = "0 0 1536 1024"
width="1536"
height="1024">

<g fill="None" fill-opacity="0.0" stroke="#000000" stroke-opacity="0.00" stroke-width="0.3"><path d="
M 0.00 1024.00 
L 1536.00 1024.00
L 1536.00 0.00
L 0.00 0.00
L 0.00 1024.00
M 723.00 174.00 
C 723.61 174.61 721.34 172.34 723.00 174.00
M 733.00 174.00 
C 731.09 176.49 729.02 173.19 733.00 174.00
M 883.00 490.00 
C 880.74 491.93 878.83 492.51 876.00 493.00
C 875.02 493.32 874.52 493.99 873.00 494.00
C 872.50 494.00 871.50 494.00 871.00 494.00
C 861.04 498.24 846.32 494.10 835.00 495.00 C 823.68 495.90 808.62 495.72 798.00 494.00
C 784.48 493.27 777.92 478.96 772.61 470.25 C 767.29 461.54 767.73 460.31 763.08 453.92 C 758.44 447.53 758.68 440.77 752.00 443.00
C 755.45 436.17 747.89 428.77 744.25 422.75 C 740.61 416.74 736.90 405.64 731.00 405.00
C 732.85 401.78 730.36 398.98 729.00 396.00
C 726.29 392.54 726.37 395.41 724.00 393.00
C 716.60 407.42 707.53 420.77 700.08 435.08 C 692.63 449.39 683.06 462.78 675.75 476.75 C 668.44 490.73 657.45 505.74 655.00 519.00
C 648.23 520.62 644.30 533.78 639.08 542.08 C 633.85 550.37 627.91 561.16 622.75 569.75 C 617.58 578.33 612.79 587.94 607.23 597.23 C 601.67 606.52 596.49 615.74 591.23 625.23 C 585.97 634.72 580.40 643.87 575.25 653.25 C 570.10 662.63 564.90 671.28 559.30 680.30 C 553.69 689.32 550.22 700.18 544.08 709.08 C 537.93 717.98 533.45 727.79 528.08 737.08 C 522.70 746.36 517.75 755.02 512.22 764.22 C 506.70 773.43 502.38 783.11 496.25 792.25 C 490.11 801.38 488.72 811.97 478.77 818.77 C 468.82 825.57 452.80 822.44 440.00 823.00 C 427.20 823.56 409.02 822.42 396.00 823.00 C 382.98 823.58 371.73 821.94 363.00 812.00
C 365.18 816.44 370.47 818.18 373.00 822.00
C 369.15 820.91 359.44 813.63 363.00 811.00
C 352.72 794.69 371.09 780.30 372.00 767.00
C 374.37 772.18 376.62 763.10 379.30 759.30 C 381.99 755.51 384.58 749.57 387.30 745.31 C 390.03 741.04 393.29 736.17 392.00 732.00
C 397.16 733.22 399.76 721.78 403.92 715.92 C 408.09 710.07 412.10 701.42 415.92 694.92 C 419.75 688.43 424.21 681.65 427.77 674.77 C 431.33 667.89 435.96 660.62 439.77 653.77 C 443.58 646.92 447.53 640.20 451.30 633.30 C 455.08 626.41 459.63 619.20 463.30 612.30 C 466.98 605.41 473.18 598.54 472.00 592.00
C 476.13 594.57 478.32 584.78 481.31 580.31 C 484.29 575.83 487.79 569.78 490.77 564.77 C 493.75 559.76 497.24 553.32 500.00 548.00
C 497.65 547.28 499.00 544.20 500.00 547.00
C 507.86 542.08 509.22 528.49 515.31 521.31 C 521.39 514.12 525.01 503.37 530.30 495.30 C 535.60 487.24 540.76 477.95 545.31 469.31 C 549.85 460.66 556.25 452.39 560.75 443.75 C 565.25 435.11 570.83 425.73 575.31 417.30 C 579.78 408.88 588.61 399.77 586.00 392.00
C 592.59 392.85 595.49 381.51 599.77 374.77 C 604.05 368.03 608.56 359.85 612.77 352.77 C 616.98 345.69 621.52 337.55 625.31 330.30 C 629.09 323.06 636.04 315.83 635.00 309.00
C 638.47 312.53 639.66 304.42 639.00 302.00
C 646.75 297.39 654.66 282.27 655.00 274.00
C 659.91 275.80 662.44 264.54 666.30 259.30 C 670.17 254.06 673.67 246.15 677.30 240.30 C 680.94 234.46 685.01 227.47 688.30 221.30 C 691.60 215.14 697.30 208.81 696.00 203.00
C 699.81 205.52 703.98 194.66 705.92 189.92 C 707.87 185.19 717.14 178.96 715.00 176.00
C 733.87 169.67 746.61 184.92 753.25 199.75 C 759.90 214.58 768.93 226.61 776.25 240.75 C 783.58 254.89 791.58 267.76 799.31 281.70 C 807.03 295.63 814.82 309.40 822.77 323.23 C 830.72 337.06 837.92 350.27 845.92 364.08 C 853.93 377.88 860.86 390.79 869.30 404.70 C 877.75 418.60 883.07 431.44 892.31 445.70 C 901.54 459.95 891.69 478.59 883.00 490.00
M 745.00 181.00 
C 745.74 181.74 744.18 180.18 745.00 181.00
M 768.00 218.00 
C 767.47 223.40 762.68 217.57 768.00 218.00
M 682.00 229.00 
C 683.79 230.79 681.23 228.23 682.00 229.00
M 777.00 237.00 
C 778.79 238.79 776.23 236.23 777.00 237.00
M 790.00 261.00 
C 787.27 260.19 785.24 255.97 785.00 253.00
C 787.18 255.16 788.66 258.15 790.00 261.00
M 666.00 257.00 
C 666.74 257.74 665.18 256.18 666.00 257.00
M 657.00 272.00 
C 657.74 272.74 656.18 271.18 657.00 272.00
M 807.00 290.00 
C 807.74 290.74 806.18 289.18 807.00 290.00
M 808.00 292.00 
C 809.79 293.79 807.23 291.23 808.00 292.00
M 644.00 295.00 
C 645.79 296.79 643.23 294.23 644.00 295.00
M 638.00 306.00 
C 638.06 310.33 634.15 307.49 638.00 306.00
M 820.00 313.00 
C 821.79 314.79 819.23 312.23 820.00 313.00
M 825.00 323.00 
C 820.17 321.65 823.45 316.94 825.00 323.00
M 828.00 327.00 
C 829.79 328.79 827.23 326.23 828.00 327.00
M 621.00 335.00 
C 622.79 336.79 620.23 334.23 621.00 335.00
M 837.00 345.00 
C 842.36 344.11 837.85 350.55 837.00 345.00
M 850.00 367.00 
C 845.17 365.65 848.45 360.94 850.00 367.00
M 853.00 371.00 
C 854.79 372.79 852.23 370.23 853.00 371.00
M 877.00 413.00 
C 878.79 414.79 876.22 412.23 877.00 413.00
M 881.00 420.00 
C 882.79 421.79 880.23 419.23 881.00 420.00
M 886.00 429.00 
C 887.79 430.79 885.22 428.23 886.00 429.00
M 687.00 466.00 
C 682.04 467.10 686.25 460.52 687.00 466.00
M 897.00 469.00 
C 897.74 473.53 893.41 471.12 897.00 469.00
M 542.00 472.00 
C 543.79 473.79 541.23 471.23 542.00 472.00
M 678.00 477.00 
C 678.74 481.53 674.41 479.12 678.00 477.00
M 676.00 486.00 
C 670.20 486.31 675.62 478.93 676.00 486.00
M 534.00 486.00 
C 535.79 487.79 533.23 485.23 534.00 486.00
M 523.00 505.00 
C 524.79 506.79 522.23 504.23 523.00 505.00
M 662.00 505.00 
C 662.74 509.53 658.41 507.12 662.00 505.00
M 651.00 524.00 
C 651.74 524.74 650.18 523.18 651.00 524.00
M 650.00 526.00 
C 650.74 530.53 646.41 528.12 650.00 526.00
M 496.00 552.00 
C 497.79 553.79 495.22 551.23 496.00 552.00
M 1042.00 701.00 
C 1041.91 700.01 1042.07 698.99 1042.00 698.00
C 1043.71 701.28 1043.79 697.81 1046.00 697.00
C 1042.80 700.46 1047.67 703.74 1044.00 705.00
C 1048.59 711.46 1052.62 720.70 1057.77 728.23 C 1062.92 735.76 1066.83 746.34 1072.75 753.25 C 1078.68 760.15 1080.31 773.19 1088.00 778.00
C 1088.92 774.04 1090.40 778.32 1093.00 778.00
C 1091.28 779.93 1090.33 781.46 1088.00 779.00
C 1092.83 791.32 1106.63 803.21 1095.75 816.75 C 1084.86 830.28 1072.32 824.98 1057.00 826.00 C 1041.68 827.02 1019.65 824.20 1004.00 826.00 C 988.35 827.80 976.98 821.22 970.23 807.77 C 963.48 794.32 957.08 785.84 950.00 773.00
C 949.78 775.19 946.13 774.01 945.00 776.00
C 941.55 772.94 947.77 769.73 944.00 768.00
C 945.00 768.00 946.00 768.00 947.00 768.00
C 943.17 762.07 939.52 755.07 935.70 749.31 C 931.87 743.54 929.92 734.54 923.00 734.00
C 924.87 726.06 915.63 716.48 911.08 707.92 C 906.53 699.36 900.38 690.21 895.23 681.77 C 890.08 673.33 885.25 663.50 879.70 655.30 C 874.14 647.11 871.00 635.75 860.92 632.08 C 850.84 628.40 831.67 630.13 821.00 630.00 C 810.33 629.87 786.49 633.20 791.77 620.77 C 797.05 608.34 801.18 604.77 806.92 593.92 C 812.65 583.06 815.22 577.59 822.25 567.25 C 829.29 556.92 844.16 558.94 855.25 558.80 C 866.33 558.67 879.32 559.37 891.03 558.98 C 902.73 558.59 919.10 559.70 931.00 559.00 C 942.90 558.30 957.18 558.39 963.25 568.75 C 969.32 579.12 973.57 585.44 978.92 595.08 C 984.27 604.73 989.40 612.12 994.75 621.25 C 1000.11 630.37 1004.94 638.76 1010.30 647.70 C 1015.66 656.63 1020.36 665.36 1025.77 674.23 C 1031.18 683.10 1036.09 692.65 1042.00 701.00
M 626.00 568.00 
C 626.74 568.74 625.18 567.18 626.00 568.00
M 625.00 570.00 
C 625.74 574.53 621.41 572.12 625.00 570.00
M 482.00 578.00 
C 477.26 577.20 481.57 574.16 482.00 578.00
M 469.00 599.00 
C 470.79 600.79 468.23 598.23 469.00 599.00
M 462.00 611.00 
C 462.74 615.53 458.41 613.12 462.00 611.00
M 598.00 617.00 
C 598.74 621.53 594.41 619.12 598.00 617.00
M 594.00 624.00 
C 593.30 630.58 588.79 627.48 594.00 624.00
M 589.00 633.00 
C 589.74 637.53 585.41 635.12 589.00 633.00
M 445.00 641.00 
C 446.79 642.79 444.23 640.23 445.00 641.00
M 582.00 645.00 
C 582.47 650.37 578.09 647.81 582.00 645.00
M 437.00 655.00 
C 438.79 656.79 436.23 654.23 437.00 655.00
M 430.00 667.00 
C 431.79 668.79 429.23 666.23 430.00 667.00
M 569.00 668.00 
C 569.74 672.53 565.41 670.12 569.00 668.00
M 421.00 683.00 
C 422.79 684.79 420.23 682.23 421.00 683.00
M 405.00 711.00 
C 406.79 712.79 404.23 710.23 405.00 711.00
M 914.00 716.00 
C 914.74 716.74 913.18 715.18 914.00 716.00
M 536.00 726.00 
C 536.74 730.53 532.41 728.12 536.00 726.00
M 385.00 743.00 
C 385.58 743.05 386.25 745.19 384.87 744.92 C 383.48 744.65 384.11 742.92 385.00 743.00
M 385.00 746.00 
C 386.79 747.79 384.23 745.23 385.00 746.00
M 514.00 764.00 
C 515.84 757.63 519.75 762.73 514.00 764.00
M 508.00 775.00 
C 508.74 775.74 507.19 774.18 508.00 775.00
M 507.00 777.00 
C 507.74 781.53 503.41 779.12 507.00 777.00
M 359.00 794.00 
C 359.00 797.67 359.00 801.33 359.00 805.00
C 357.44 802.39 357.28 796.54 359.00 794.00
M 496.00 799.00 
C 496.34 802.69 494.38 803.63 493.00 803.00
C 490.96 801.69 493.61 797.96 496.00 799.00
M 480.00 820.00 
C 479.63 823.80 475.30 820.82 480.00 820.00
M 471.00 824.00 
C 439.46 825.81 404.05 825.46 373.00 824.00
C 377.85 821.24 386.01 824.83 394.00 824.00 C 401.99 823.17 411.73 824.40 420.00 824.00 C 428.27 823.60 436.59 824.20 445.00 824.00 C 453.41 823.80 462.53 824.15 471.00 824.00
M 476.00 822.00 
C 476.74 822.74 475.19 821.18 476.00 822.00
M 1047.00 832.00 
C 1044.21 831.56 1042.89 828.99 1040.00 832.00
C 1039.69 826.95 1046.71 828.27 1047.00 832.00 Z"/>
</g>
<g fill="None" fill-opacity="0.0" stroke="#1C213E" stroke-opacity="0.48" stroke-width="0.3"><path d="
M 723.00 174.00 
C 721.34 172.34 723.61 174.61 723.00 174.00 Z"/>
</g>
<g fill="None" fill-opacity="0.0" stroke="#1C213B" stroke-opacity="0.51" stroke-width="0.3"><path d="
M 733.00 174.00 
C 729.02 173.19 731.09 176.49 733.00 174.00 Z"/>
</g>
<g fill="None" fill-opacity="0.0" stroke="#0D193F" stroke-opacity="1.00" stroke-width="0.3"><path d="
M 500.00 547.00 
C 499.78 547.14 500.00 548.00 500.00 548.00
C 497.24 553.32 493.75 559.76 490.77 564.77 C 487.79 569.78 484.29 575.83 481.31 580.31 C 478.32 584.78 476.13 594.57 472.00 592.00
C 473.18 598.54 466.98 605.41 463.30 612.30 C 459.63 619.20 455.08 626.41 451.30 633.30 C 447.53 640.20 443.58 646.92 439.77 653.77 C 435.96 660.62 431.33 667.89 427.77 674.77 C 424.21 681.65 419.75 688.43 415.92 694.92 C 412.10 701.42 408.09 710.07 403.92 715.92 C 399.76 721.78 397.16 733.22 392.00 732.00
C 393.29 736.17 390.03 741.04 387.30 745.31 C 384.58 749.57 381.99 755.51 379.30 759.30 C 376.62 763.10 374.37 772.18 372.00 767.00
C 371.09 780.30 352.72 794.69 363.00 811.00
C 363.23 811.36 363.00 812.00 363.00 812.00
C 371.73 821.94 382.98 823.58 396.00 823.00 C 409.02 822.42 427.20 823.56 440.00 823.00 C 452.80 822.44 468.82 825.57 478.77 818.77 C 488.72 811.97 490.11 801.38 496.25 792.25 C 502.38 783.11 506.70 773.43 512.22 764.22 C 517.75 755.02 522.70 746.36 528.08 737.08 C 533.45 727.79 537.93 717.98 544.08 709.08 C 550.22 700.18 553.69 689.32 559.30 680.30 C 564.90 671.28 570.10 662.63 575.25 653.25 C 580.40 643.87 585.97 634.72 591.23 625.23 C 596.49 615.74 601.67 606.52 607.23 597.23 C 612.79 587.94 617.58 578.33 622.75 569.75 C 627.91 561.16 633.85 550.37 639.08 542.08 C 644.30 533.78 648.23 520.62 655.00 519.00
C 657.45 505.74 668.44 490.73 675.75 476.75 C 683.06 462.78 692.63 449.39 700.08 435.08 C 707.53 420.77 716.60 407.42 724.00 393.00
C 726.37 395.41 726.29 392.54 729.00 396.00
C 727.78 393.93 725.31 391.85 726.00 390.00
C 730.51 393.61 733.54 399.76 736.75 405.25 C 739.97 410.73 743.30 416.77 746.77 422.23 C 750.24 427.69 753.18 433.79 756.77 439.23 C 760.36 444.67 762.64 450.23 766.30 455.70 C 769.97 461.17 772.62 467.11 776.30 472.70 C 779.99 478.29 781.97 483.64 787.75 488.25 C 793.53 492.86 801.01 492.99 809.00 493.00 C 816.99 493.01 827.76 492.65 836.00 493.00 C 844.24 493.35 855.00 492.07 863.00 493.00 C 871.00 493.93 878.76 489.09 883.00 490.00
C 891.69 478.59 901.54 459.95 892.31 445.70 C 883.07 431.44 877.75 418.60 869.30 404.70 C 860.86 390.79 853.93 377.88 845.92 364.08 C 837.92 350.27 830.72 337.06 822.77 323.23 C 814.82 309.40 807.03 295.63 799.31 281.70 C 791.58 267.76 783.58 254.89 776.25 240.75 C 768.93 226.61 759.90 214.58 753.25 199.75 C 746.61 184.92 733.87 169.67 715.00 176.00
C 717.14 178.96 707.87 185.19 705.92 189.92 C 703.98 194.66 699.81 205.52 696.00 203.00
C 697.30 208.81 691.60 215.14 688.30 221.30 C 685.01 227.47 680.94 234.46 677.30 240.30 C 673.67 246.15 670.17 254.06 666.30 259.30 C 662.44 264.54 659.91 275.80 655.00 274.00
C 654.66 282.27 646.75 297.39 639.00 302.00
C 639.66 304.42 638.47 312.53 635.00 309.00
C 636.04 315.83 629.09 323.06 625.31 330.30 C 621.52 337.55 616.98 345.69 612.77 352.77 C 608.56 359.85 604.05 368.03 599.77 374.77 C 595.49 381.51 592.59 392.85 586.00 392.00
C 588.61 399.77 579.78 408.88 575.31 417.30 C 570.83 425.73 565.25 435.11 560.75 443.75 C 556.25 452.39 549.85 460.66 545.31 469.31 C 540.76 477.95 535.60 487.24 530.30 495.30 C 525.01 503.37 521.39 514.12 515.31 521.31 C 509.22 528.49 507.86 542.08 500.00 547.00 Z"/>
</g>
<g fill="None" fill-opacity="0.0" stroke="#404040" stroke-opacity="0.02" stroke-width="0.3"><path d="
M 745.00 181.00 
C 744.18 180.18 745.74 181.74 745.00 181.00 Z"/>
</g>
<g fill="None" fill-opacity="0.0" stroke="#062149" stroke-opacity="0.26" stroke-width="0.3"><path d="
M 768.00 218.00 
C 762.68 217.57 767.47 223.40 768.00 218.00 Z"/>
</g>
<g fill="None" fill-opacity="0.0" stroke="#051658" stroke-opacity="0.34" stroke-width="0.3"><path d="
M 682.00 229.00 
C 681.23 228.23 683.79 230.79 682.00 229.00 Z"/>
</g>
<g fill="None" fill-opacity="0.0" stroke="#252740" stroke-opacity="0.41" stroke-width="0.3"><path d="
M 777.00 237.00 
C 776.23 236.23 778.79 238.79 777.00 237.00 Z"/>
</g>
<g fill="None" fill-opacity="0.0" stroke="#171B37" stroke-opacity="0.51" stroke-width="0.3"><path d="
M 790.00 261.00 
C 788.66 258.15 787.18 255.16 785.00 253.00
C 785.24 255.97 787.27 260.19 790.00 261.00 Z"/>
</g>
<g fill="None" fill-opacity="0.0" stroke="#2A2A6A" stroke-opacity="0.05" stroke-width="0.3"><path d="
M 666.00 257.00 
C 665.18 256.18 666.74 257.74 666.00 257.00 Z"/>
</g>
<g fill="None" fill-opacity="0.0" stroke="#000080" stroke-opacity="0.01" stroke-width="0.3"><path d="
M 657.00 272.00 
C 656.18 271.18 657.74 272.74 657.00 272.00 Z"/>
</g>
<g fill="None" fill-opacity="0.0" stroke="#204060" stroke-opacity="0.03" stroke-width="0.3"><path d="
M 807.00 290.00 
C 806.18 289.18 807.74 290.74 807.00 290.00 Z"/>
</g>
<g fill="None" fill-opacity="0.0" stroke="#151D47" stroke-opacity="0.49" stroke-width="0.3"><path d="
M 808.00 292.00 
C 807.23 291.23 809.79 293.79 808.00 292.00 Z"/>
</g>
<g fill="None" fill-opacity="0.0" stroke="#1F2343" stroke-opacity="0.42" stroke-width="0.3"><path d="
M 644.00 295.00 
C 643.23 294.23 645.79 296.79 644.00 295.00 Z"/>
</g>
<g fill="None" fill-opacity="0.0" stroke="#172A3D" stroke-opacity="0.48" stroke-width="0.3"><path d="
M 638.00 306.00 
C 634.15 307.49 638.06 310.33 638.00 306.00 Z"/>
</g>
<g fill="None" fill-opacity="0.0" stroke="#1E2040" stroke-opacity="0.38" stroke-width="0.3"><path d="
M 820.00 313.00 
C 819.23 312.23 821.79 314.79 820.00 313.00 Z"/>
</g>
<g fill="None" fill-opacity="0.0" stroke="#151C3C" stroke-opacity="0.51" stroke-width="0.3"><path d="
M 825.00 323.00 
C 823.45 316.94 820.17 321.65 825.00 323.00 Z"/>
</g>
<g fill="None" fill-opacity="0.0" stroke="#2A2F40" stroke-opacity="0.33" stroke-width="0.3"><path d="
M 828.00 327.00 
C 827.23 326.23 829.79 328.79 828.00 327.00 Z"/>
</g>
<g fill="None" fill-opacity="0.0" stroke="#242846" stroke-opacity="0.40" stroke-width="0.3"><path d="
M 621.00 335.00 
C 620.23 334.23 622.79 336.79 621.00 335.00 Z"/>
</g>
<g fill="None" fill-opacity="0.0" stroke="#0A1A52" stroke-opacity="0.04" stroke-width="0.3"><path d="
M 837.00 345.00 
C 837.85 350.55 842.36 344.11 837.00 345.00 Z"/>
</g>
<g fill="None" fill-opacity="0.0" stroke="#1D2136" stroke-opacity="0.49" stroke-width="0.3"><path d="
M 850.00 367.00 
C 848.45 360.94 845.17 365.65 850.00 367.00 Z"/>
</g>
<g fill="None" fill-opacity="0.0" stroke="#202145" stroke-opacity="0.30" stroke-width="0.3"><path d="
M 853.00 371.00 
C 852.23 370.23 854.79 372.79 853.00 371.00 Z"/>
</g>
<g fill="None" fill-opacity="0.0" stroke="#050614" stroke-opacity="0.80" stroke-width="0.3"><path d="
M 729.00 396.00 
C 730.36 398.98 732.85 401.78 731.00 405.00
C 736.90 405.64 740.61 416.74 744.25 422.75 C 747.89 428.77 755.45 436.17 752.00 443.00
C 758.68 440.77 758.44 447.53 763.08 453.92 C 767.73 460.31 767.29 461.54 772.61 470.25 C 777.92 478.96 784.48 493.27 798.00 494.00
C 822.17 495.31 846.79 494.00 871.00 494.00
C 871.50 494.00 872.50 494.00 873.00 494.00
C 873.73 493.81 874.84 493.20 876.00 493.00
C 878.83 492.51 880.74 491.93 883.00 490.00
C 878.76 489.09 871.00 493.93 863.00 493.00 C 855.00 492.07 844.24 493.35 836.00 493.00 C 827.76 492.65 816.99 493.01 809.00 493.00 C 801.01 492.99 793.53 492.86 787.75 488.25 C 781.97 483.64 779.99 478.29 776.30 472.70 C 772.62 467.11 769.97 461.17 766.30 455.70 C 762.64 450.23 760.36 444.67 756.77 439.23 C 753.18 433.79 750.24 427.69 746.77 422.23 C 743.30 416.77 739.97 410.73 736.75 405.25 C 733.54 399.76 730.51 393.61 726.00 390.00
C 725.31 391.85 727.78 393.93 729.00 396.00 Z"/>
</g>
<g fill="None" fill-opacity="0.0" stroke="#292C5C" stroke-opacity="0.32" stroke-width="0.3"><path d="
M 877.00 413.00 
C 876.22 412.23 878.79 414.79 877.00 413.00 Z"/>
</g>
<g fill="None" fill-opacity="0.0" stroke="#1B1F4E" stroke-opacity="0.33" stroke-width="0.3"><path d="
M 881.00 420.00 
C 880.23 419.23 882.79 421.79 881.00 420.00 Z"/>
</g>
<g fill="None" fill-opacity="0.0" stroke="#1D1E3E" stroke-opacity="0.41" stroke-width="0.3"><path d="
M 886.00 429.00 
C 885.22 428.23 887.79 430.79 886.00 429.00 Z"/>
</g>
<g fill="None" fill-opacity="0.0" stroke="#0E153A" stroke-opacity="0.22" stroke-width="0.3"><path d="
M 687.00 466.00 
C 686.25 460.52 682.04 467.10 687.00 466.00 Z"/>
</g>
<g fill="None" fill-opacity="0.0" stroke="#121B33" stroke-opacity="0.30" stroke-width="0.3"><path d="
M 897.00 469.00 
C 893.41 471.12 897.74 473.53 897.00 469.00 Z"/>
</g>
<g fill="None" fill-opacity="0.0" stroke="#1D304F" stroke-opacity="0.31" stroke-width="0.3"><path d="
M 542.00 472.00 
C 541.23 471.23 543.79 473.79 542.00 472.00 Z"/>
</g>
<g fill="None" fill-opacity="0.0" stroke="#0E1128" stroke-opacity="0.31" stroke-width="0.3"><path d="
M 678.00 477.00 
C 674.41 479.12 678.74 481.53 678.00 477.00 Z"/>
</g>
<g fill="None" fill-opacity="0.0" stroke="#0B143D" stroke-opacity="0.35" stroke-width="0.3"><path d="
M 676.00 486.00 
C 675.62 478.93 670.20 486.31 676.00 486.00 Z"/>
</g>
<g fill="None" fill-opacity="0.0" stroke="#23254B" stroke-opacity="0.38" stroke-width="0.3"><path d="
M 534.00 486.00 
C 533.23 485.23 535.79 487.79 534.00 486.00 Z"/>
</g>
<g fill="None" fill-opacity="0.0" stroke="#262A59" stroke-opacity="0.46" stroke-width="0.3"><path d="
M 873.00 494.00 
C 874.52 493.99 875.02 493.32 876.00 493.00
C 874.84 493.20 873.73 493.81 873.00 494.00 Z"/>
</g>
<g fill="None" fill-opacity="0.0" stroke="#2C3262" stroke-opacity="0.27" stroke-width="0.3"><path d="
M 871.00 494.00 
C 846.79 494.00 822.17 495.31 798.00 494.00
C 808.62 495.72 823.68 495.90 835.00 495.00 C 846.32 494.10 861.04 498.24 871.00 494.00 Z"/>
</g>
<g fill="None" fill-opacity="0.0" stroke="#262A52" stroke-opacity="0.34" stroke-width="0.3"><path d="
M 523.00 505.00 
C 522.23 504.23 524.79 506.79 523.00 505.00 Z"/>
</g>
<g fill="None" fill-opacity="0.0" stroke="#171A36" stroke-opacity="0.25" stroke-width="0.3"><path d="
M 662.00 505.00 
C 658.41 507.12 662.74 509.53 662.00 505.00 Z"/>
</g>
<g fill="None" fill-opacity="0.0" stroke="#15182B" stroke-opacity="0.76" stroke-width="0.3"><path d="
M 651.00 524.00 
C 650.18 523.18 651.74 524.74 651.00 524.00 Z"/>
</g>
<g fill="None" fill-opacity="0.0" stroke="#081339" stroke-opacity="0.22" stroke-width="0.3"><path d="
M 650.00 526.00 
C 646.41 528.12 650.74 530.53 650.00 526.00 Z"/>
</g>
<g fill="None" fill-opacity="0.0" stroke="#222537" stroke-opacity="0.45" stroke-width="0.3"><path d="
M 500.00 548.00 
C 500.00 548.00 499.78 547.14 500.00 547.00
C 499.00 544.20 497.65 547.28 500.00 548.00 Z"/>
</g>
<g fill="None" fill-opacity="0.0" stroke="#1F2246" stroke-opacity="0.39" stroke-width="0.3"><path d="
M 496.00 552.00 
C 495.22 551.23 497.79 553.79 496.00 552.00 Z"/>
</g>
<g fill="None" fill-opacity="0.0" stroke="#22C55E" stroke-opacity="0.98" stroke-width="0.3"><path d="
M 947.00 768.00 
C 948.11 769.71 949.03 771.24 950.00 773.00
C 957.08 785.84 963.48 794.32 970.23 807.77 C 976.98 821.22 988.35 827.80 1004.00 826.00 C 1019.65 824.20 1041.68 827.02 1057.00 826.00 C 1072.32 824.98 1084.86 830.28 1095.75 816.75 C 1106.63 803.21 1092.83 791.32 1088.00 779.00
C 1087.83 778.57 1088.00 778.00 1088.00 778.00
C 1080.31 773.19 1078.68 760.15 1072.75 753.25 C 1066.83 746.34 1062.92 735.76 1057.77 728.23 C 1052.62 720.70 1048.59 711.46 1044.00 705.00
C 1043.08 703.70 1042.74 702.42 1042.00 701.00
C 1036.09 692.65 1031.18 683.10 1025.77 674.23 C 1020.36 665.36 1015.66 656.63 1010.30 647.70 C 1004.94 638.76 1000.11 630.37 994.75 621.25 C 989.40 612.12 984.27 604.73 978.92 595.08 C 973.57 585.44 969.32 579.12 963.25 568.75 C 957.18 558.39 942.90 558.30 931.00 559.00 C 919.10 559.70 902.73 558.59 891.03 558.98 C 879.32 559.37 866.33 558.67 855.25 558.80 C 844.16 558.94 829.29 556.92 822.25 567.25 C 815.22 577.59 812.65 583.06 806.92 593.92 C 801.18 604.77 797.05 608.34 791.77 620.77 C 786.49 633.20 810.33 629.87 821.00 630.00 C 831.67 630.13 850.84 628.40 860.92 632.08 C 871.00 635.75 874.14 647.11 879.70 655.30 C 885.25 663.50 890.08 673.33 895.23 681.77 C 900.38 690.21 906.53 699.36 911.08 707.92 C 915.63 716.48 924.87 726.06 923.00 734.00
C 929.92 734.54 931.87 743.54 935.70 749.31 C 939.52 755.07 943.17 762.07 947.00 768.00 Z"/>
</g>
<g fill="None" fill-opacity="0.0" stroke="#1B1D39" stroke-opacity="0.70" stroke-width="0.3"><path d="
M 626.00 568.00 
C 625.18 567.18 626.74 568.74 626.00 568.00 Z"/>
</g>
<g fill="None" fill-opacity="0.0" stroke="#0B1541" stroke-opacity="0.18" stroke-width="0.3"><path d="
M 625.00 570.00 
C 621.41 572.12 625.74 574.53 625.00 570.00 Z"/>
</g>
<g fill="None" fill-opacity="0.0" stroke="#091139" stroke-opacity="0.14" stroke-width="0.3"><path d="
M 482.00 578.00 
C 481.57 574.16 477.26 577.20 482.00 578.00 Z"/>
</g>
<g fill="None" fill-opacity="0.0" stroke="#0A185B" stroke-opacity="0.36" stroke-width="0.3"><path d="
M 469.00 599.00 
C 468.23 598.23 470.79 600.79 469.00 599.00 Z"/>
</g>
<g fill="None" fill-opacity="0.0" stroke="#23273B" stroke-opacity="0.41" stroke-width="0.3"><path d="
M 462.00 611.00 
C 458.41 613.12 462.74 615.53 462.00 611.00 Z"/>
</g>
<g fill="None" fill-opacity="0.0" stroke="#111428" stroke-opacity="0.36" stroke-width="0.3"><path d="
M 598.00 617.00 
C 594.41 619.12 598.74 621.53 598.00 617.00 Z"/>
</g>
<g fill="None" fill-opacity="0.0" stroke="#21243D" stroke-opacity="0.52" stroke-width="0.3"><path d="
M 594.00 624.00 
C 588.79 627.48 593.30 630.58 594.00 624.00 Z"/>
</g>
<g fill="None" fill-opacity="0.0" stroke="#1D1F30" stroke-opacity="0.26" stroke-width="0.3"><path d="
M 589.00 633.00 
C 585.41 635.12 589.74 637.53 589.00 633.00 Z"/>
</g>
<g fill="None" fill-opacity="0.0" stroke="#2C2F3D" stroke-opacity="0.32" stroke-width="0.3"><path d="
M 445.00 641.00 
C 444.23 640.23 446.79 642.79 445.00 641.00 Z"/>
</g>
<g fill="None" fill-opacity="0.0" stroke="#0B143D" stroke-opacity="0.30" stroke-width="0.3"><path d="
M 582.00 645.00 
C 578.09 647.81 582.47 650.37 582.00 645.00 Z"/>
</g>
<g fill="None" fill-opacity="0.0" stroke="#292B4A" stroke-opacity="0.41" stroke-width="0.3"><path d="
M 437.00 655.00 
C 436.23 654.23 438.79 656.79 437.00 655.00 Z"/>
</g>
<g fill="None" fill-opacity="0.0" stroke="#2E303C" stroke-opacity="0.29" stroke-width="0.3"><path d="
M 430.00 667.00 
C 429.23 666.23 431.79 668.79 430.00 667.00 Z"/>
</g>
<g fill="None" fill-opacity="0.0" stroke="#0F1125" stroke-opacity="0.37" stroke-width="0.3"><path d="
M 569.00 668.00 
C 565.41 670.12 569.74 672.53 569.00 668.00 Z"/>
</g>
<g fill="None" fill-opacity="0.0" stroke="#222545" stroke-opacity="0.34" stroke-width="0.3"><path d="
M 421.00 683.00 
C 420.23 682.23 422.79 684.79 421.00 683.00 Z"/>
</g>
<g fill="None" fill-opacity="0.0" stroke="#751F8F" stroke-opacity="0.01" stroke-width="0.3"><path d="
M 1042.00 701.00 
C 1042.74 702.42 1043.08 703.70 1044.00 705.00
C 1047.67 703.74 1042.80 700.46 1046.00 697.00
C 1043.79 697.81 1043.71 701.28 1042.00 698.00
C 1042.07 698.99 1041.91 700.01 1042.00 701.00 Z"/>
</g>
<g fill="None" fill-opacity="0.0" stroke="#1F2244" stroke-opacity="0.40" stroke-width="0.3"><path d="
M 405.00 711.00 
C 404.23 710.23 406.79 712.79 405.00 711.00 Z"/>
</g>
<g fill="None" fill-opacity="0.0" stroke="#8080FF" stroke-opacity="0.01" stroke-width="0.3"><path d="
M 914.00 716.00 
C 913.18 715.18 914.74 716.74 914.00 716.00 Z"/>
</g>
<g fill="None" fill-opacity="0.0" stroke="#0D132C" stroke-opacity="0.35" stroke-width="0.3"><path d="
M 536.00 726.00 
C 532.41 728.12 536.74 730.53 536.00 726.00 Z"/>
</g>
<g fill="None" fill-opacity="0.0" stroke="#050B36" stroke-opacity="0.01" stroke-width="0.3"><path d="
M 385.00 743.00 
C 384.11 742.92 383.48 744.65 384.87 744.92 C 386.25 745.19 385.58 743.05 385.00 743.00 Z"/>
</g>
<g fill="None" fill-opacity="0.0" stroke="#07155D" stroke-opacity="0.28" stroke-width="0.3"><path d="
M 385.00 746.00 
C 384.23 745.23 386.79 747.79 385.00 746.00 Z"/>
</g>
<g fill="None" fill-opacity="0.0" stroke="#090F24" stroke-opacity="0.26" stroke-width="0.3"><path d="
M 514.00 764.00 
C 519.75 762.73 515.84 757.63 514.00 764.00 Z"/>
</g>
<g fill="None" fill-opacity="0.0" stroke="#5A2789" stroke-opacity="0.01" stroke-width="0.3"><path d="
M 950.00 773.00 
C 949.03 771.24 948.11 769.71 947.00 768.00
C 946.00 768.00 945.00 768.00 944.00 768.00
C 947.77 769.73 941.55 772.94 945.00 776.00
C 946.13 774.01 949.78 775.19 950.00 773.00 Z"/>
</g>
<g fill="None" fill-opacity="0.0" stroke="#0F0F26" stroke-opacity="0.87" stroke-width="0.3"><path d="
M 508.00 775.00 
C 507.19 774.18 508.74 775.74 508.00 775.00 Z"/>
</g>
<g fill="None" fill-opacity="0.0" stroke="#9B34B3" stroke-opacity="0.00" stroke-width="0.3"><path d="
M 1088.00 778.00 
C 1088.00 778.00 1087.83 778.57 1088.00 779.00
C 1090.33 781.46 1091.28 779.93 1093.00 778.00
C 1090.40 778.32 1088.92 774.04 1088.00 778.00 Z"/>
</g>
<g fill="None" fill-opacity="0.0" stroke="#121327" stroke-opacity="0.28" stroke-width="0.3"><path d="
M 507.00 777.00 
C 503.41 779.12 507.74 781.53 507.00 777.00 Z"/>
</g>
<g fill="None" fill-opacity="0.0" stroke="#1F2338" stroke-opacity="0.45" stroke-width="0.3"><path d="
M 359.00 794.00 
C 357.28 796.54 357.44 802.39 359.00 805.00
C 359.00 801.33 359.00 797.67 359.00 794.00 Z"/>
</g>
<g fill="None" fill-opacity="0.0" stroke="#04133D" stroke-opacity="0.22" stroke-width="0.3"><path d="
M 496.00 799.00 
C 493.61 797.96 490.96 801.69 493.00 803.00
C 494.38 803.63 496.34 802.69 496.00 799.00 Z"/>
</g>
<g fill="None" fill-opacity="0.0" stroke="#171828" stroke-opacity="0.60" stroke-width="0.3"><path d="
M 363.00 812.00 
C 363.00 812.00 363.23 811.36 363.00 811.00
C 359.44 813.63 369.15 820.91 373.00 822.00
C 370.47 818.18 365.18 816.44 363.00 812.00 Z"/>
</g>
<g fill="None" fill-opacity="0.0" stroke="#13162E" stroke-opacity="0.16" stroke-width="0.3"><path d="
M 480.00 820.00 
C 475.30 820.82 479.63 823.80 480.00 820.00 Z"/>
</g>
<g fill="None" fill-opacity="0.0" stroke="#24283D" stroke-opacity="0.29" stroke-width="0.3"><path d="
M 471.00 824.00 
C 462.53 824.15 453.41 823.80 445.00 824.00 C 436.59 824.20 428.27 823.60 420.00 824.00 C 411.73 824.40 401.99 823.17 394.00 824.00 C 386.01 824.83 377.85 821.24 373.00 824.00
C 404.05 825.46 439.46 825.81 471.00 824.00 Z"/>
</g>
<g fill="None" fill-opacity="0.0" stroke="#212445" stroke-opacity="0.27" stroke-width="0.3"><path d="
M 476.00 822.00 
C 475.19 821.18 476.74 822.74 476.00 822.00 Z"/>
</g>
<g fill="None" fill-opacity="0.0" stroke="#86299B" stroke-opacity="0.00" stroke-width="0.3"><path d="
M 1047.00 832.00 
C 1046.71 828.27 1039.69 826.95 1040.00 832.00
C 1042.89 828.99 1044.21 831.56 1047.00 832.00 Z"/>
</g>
<g fill="#000000" fill-opacity="0.00" stroke="None">
<path d="
M 0.00 1024.00 
L 1536.00 1024.00
L 1536.00 0.00
L 0.00 0.00
L 0.00 1024.00
M 723.00 174.00 
C 723.61 174.61 721.34 172.34 723.00 174.00
M 733.00 174.00 
C 731.09 176.49 729.02 173.19 733.00 174.00
M 883.00 490.00 
C 880.74 491.93 878.83 492.51 876.00 493.00
C 875.02 493.32 874.52 493.99 873.00 494.00
C 872.50 494.00 871.50 494.00 871.00 494.00
C 861.04 498.24 846.32 494.10 835.00 495.00 C 823.68 495.90 808.62 495.72 798.00 494.00
C 784.48 493.27 777.92 478.96 772.61 470.25 C 767.29 461.54 767.73 460.31 763.08 453.92 C 758.44 447.53 758.68 440.77 752.00 443.00
C 755.45 436.17 747.89 428.77 744.25 422.75 C 740.61 416.74 736.90 405.64 731.00 405.00
C 732.85 401.78 730.36 398.98 729.00 396.00
C 726.29 392.54 726.37 395.41 724.00 393.00
C 716.60 407.42 707.53 420.77 700.08 435.08 C 692.63 449.39 683.06 462.78 675.75 476.75 C 668.44 490.73 657.45 505.74 655.00 519.00
C 648.23 520.62 644.30 533.78 639.08 542.08 C 633.85 550.37 627.91 561.16 622.75 569.75 C 617.58 578.33 612.79 587.94 607.23 597.23 C 601.67 606.52 596.49 615.74 591.23 625.23 C 585.97 634.72 580.40 643.87 575.25 653.25 C 570.10 662.63 564.90 671.28 559.30 680.30 C 553.69 689.32 550.22 700.18 544.08 709.08 C 537.93 717.98 533.45 727.79 528.08 737.08 C 522.70 746.36 517.75 755.02 512.22 764.22 C 506.70 773.43 502.38 783.11 496.25 792.25 C 490.11 801.38 488.72 811.97 478.77 818.77 C 468.82 825.57 452.80 822.44 440.00 823.00 C 427.20 823.56 409.02 822.42 396.00 823.00 C 382.98 823.58 371.73 821.94 363.00 812.00
C 365.18 816.44 370.47 818.18 373.00 822.00
C 369.15 820.91 359.44 813.63 363.00 811.00
C 352.72 794.69 371.09 780.30 372.00 767.00
C 374.37 772.18 376.62 763.10 379.30 759.30 C 381.99 755.51 384.58 749.57 387.30 745.31 C 390.03 741.04 393.29 736.17 392.00 732.00
C 397.16 733.22 399.76 721.78 403.92 715.92 C 408.09 710.07 412.10 701.42 415.92 694.92 C 419.75 688.43 424.21 681.65 427.77 674.77 C 431.33 667.89 435.96 660.62 439.77 653.77 C 443.58 646.92 447.53 640.20 451.30 633.30 C 455.08 626.41 459.63 619.20 463.30 612.30 C 466.98 605.41 473.18 598.54 472.00 592.00
C 476.13 594.57 478.32 584.78 481.31 580.31 C 484.29 575.83 487.79 569.78 490.77 564.77 C 493.75 559.76 497.24 553.32 500.00 548.00
C 497.65 547.28 499.00 544.20 500.00 547.00
C 507.86 542.08 509.22 528.49 515.31 521.31 C 521.39 514.12 525.01 503.37 530.30 495.30 C 535.60 487.24 540.76 477.95 545.31 469.31 C 549.85 460.66 556.25 452.39 560.75 443.75 C 565.25 435.11 570.83 425.73 575.31 417.30 C 579.78 408.88 588.61 399.77 586.00 392.00
C 592.59 392.85 595.49 381.51 599.77 374.77 C 604.05 368.03 608.56 359.85 612.77 352.77 C 616.98 345.69 621.52 337.55 625.31 330.30 C 629.09 323.06 636.04 315.83 635.00 309.00
C 638.47 312.53 639.66 304.42 639.00 302.00
C 646.75 297.39 654.66 282.27 655.00 274.00
C 659.91 275.80 662.44 264.54 666.30 259.30 C 670.17 254.06 673.67 246.15 677.30 240.30 C 680.94 234.46 685.01 227.47 688.30 221.30 C 691.60 215.14 697.30 208.81 696.00 203.00
C 699.81 205.52 703.98 194.66 705.92 189.92 C 707.87 185.19 717.14 178.96 715.00 176.00
C 733.87 169.67 746.61 184.92 753.25 199.75 C 759.90 214.58 768.93 226.61 776.25 240.75 C 783.58 254.89 791.58 267.76 799.31 281.70 C 807.03 295.63 814.82 309.40 822.77 323.23 C 830.72 337.06 837.92 350.27 845.92 364.08 C 853.93 377.88 860.86 390.79 869.30 404.70 C 877.75 418.60 883.07 431.44 892.31 445.70 C 901.54 459.95 891.69 478.59 883.00 490.00
M 745.00 181.00 
C 745.74 181.74 744.18 180.18 745.00 181.00
M 768.00 218.00 
C 767.47 223.40 762.68 217.57 768.00 218.00
M 682.00 229.00 
C 683.79 230.79 681.23 228.23 682.00 229.00
M 777.00 237.00 
C 778.79 238.79 776.23 236.23 777.00 237.00
M 790.00 261.00 
C 787.27 260.19 785.24 255.97 785.00 253.00
C 787.18 255.16 788.66 258.15 790.00 261.00
M 666.00 257.00 
C 666.74 257.74 665.18 256.18 666.00 257.00
M 657.00 272.00 
C 657.74 272.74 656.18 271.18 657.00 272.00
M 807.00 290.00 
C 807.74 290.74 806.18 289.18 807.00 290.00
M 808.00 292.00 
C 809.79 293.79 807.23 291.23 808.00 292.00
M 644.00 295.00 
C 645.79 296.79 643.23 294.23 644.00 295.00
M 638.00 306.00 
C 638.06 310.33 634.15 307.49 638.00 306.00
M 820.00 313.00 
C 821.79 314.79 819.23 312.23 820.00 313.00
M 825.00 323.00 
C 820.17 321.65 823.45 316.94 825.00 323.00
M 828.00 327.00 
C 829.79 328.79 827.23 326.23 828.00 327.00
M 621.00 335.00 
C 622.79 336.79 620.23 334.23 621.00 335.00
M 837.00 345.00 
C 842.36 344.11 837.85 350.55 837.00 345.00
M 850.00 367.00 
C 845.17 365.65 848.45 360.94 850.00 367.00
M 853.00 371.00 
C 854.79 372.79 852.23 370.23 853.00 371.00
M 877.00 413.00 
C 878.79 414.79 876.22 412.23 877.00 413.00
M 881.00 420.00 
C 882.79 421.79 880.23 419.23 881.00 420.00
M 886.00 429.00 
C 887.79 430.79 885.22 428.23 886.00 429.00
M 687.00 466.00 
C 682.04 467.10 686.25 460.52 687.00 466.00
M 897.00 469.00 
C 897.74 473.53 893.41 471.12 897.00 469.00
M 542.00 472.00 
C 543.79 473.79 541.23 471.23 542.00 472.00
M 678.00 477.00 
C 678.74 481.53 674.41 479.12 678.00 477.00
M 676.00 486.00 
C 670.20 486.31 675.62 478.93 676.00 486.00
M 534.00 486.00 
C 535.79 487.79 533.23 485.23 534.00 486.00
M 523.00 505.00 
C 524.79 506.79 522.23 504.23 523.00 505.00
M 662.00 505.00 
C 662.74 509.53 658.41 507.12 662.00 505.00
M 651.00 524.00 
C 651.74 524.74 650.18 523.18 651.00 524.00
M 650.00 526.00 
C 650.74 530.53 646.41 528.12 650.00 526.00
M 496.00 552.00 
C 497.79 553.79 495.22 551.23 496.00 552.00
M 1042.00 701.00 
C 1041.91 700.01 1042.07 698.99 1042.00 698.00
C 1043.71 701.28 1043.79 697.81 1046.00 697.00
C 1042.80 700.46 1047.67 703.74 1044.00 705.00
C 1048.59 711.46 1052.62 720.70 1057.77 728.23 C 1062.92 735.76 1066.83 746.34 1072.75 753.25 C 1078.68 760.15 1080.31 773.19 1088.00 778.00
C 1088.92 774.04 1090.40 778.32 1093.00 778.00
C 1091.28 779.93 1090.33 781.46 1088.00 779.00
C 1092.83 791.32 1106.63 803.21 1095.75 816.75 C 1084.86 830.28 1072.32 824.98 1057.00 826.00 C 1041.68 827.02 1019.65 824.20 1004.00 826.00 C 988.35 827.80 976.98 821.22 970.23 807.77 C 963.48 794.32 957.08 785.84 950.00 773.00
C 949.78 775.19 946.13 774.01 945.00 776.00
C 941.55 772.94 947.77 769.73 944.00 768.00
C 945.00 768.00 946.00 768.00 947.00 768.00
C 943.17 762.07 939.52 755.07 935.70 749.31 C 931.87 743.54 929.92 734.54 923.00 734.00
C 924.87 726.06 915.63 716.48 911.08 707.92 C 906.53 699.36 900.38 690.21 895.23 681.77 C 890.08 673.33 885.25 663.50 879.70 655.30 C 874.14 647.11 871.00 635.75 860.92 632.08 C 850.84 628.40 831.67 630.13 821.00 630.00 C 810.33 629.87 786.49 633.20 791.77 620.77 C 797.05 608.34 801.18 604.77 806.92 593.92 C 812.65 583.06 815.22 577.59 822.25 567.25 C 829.29 556.92 844.16 558.94 855.25 558.80 C 866.33 558.67 879.32 559.37 891.03 558.98 C 902.73 558.59 919.10 559.70 931.00 559.00 C 942.90 558.30 957.18 558.39 963.25 568.75 C 969.32 579.12 973.57 585.44 978.92 595.08 C 984.27 604.73 989.40 612.12 994.75 621.25 C 1000.11 630.37 1004.94 638.76 1010.30 647.70 C 1015.66 656.63 1020.36 665.36 1025.77 674.23 C 1031.18 683.10 1036.09 692.65 1042.00 701.00
M 626.00 568.00 
C 626.74 568.74 625.18 567.18 626.00 568.00
M 625.00 570.00 
C 625.74 574.53 621.41 572.12 625.00 570.00
M 482.00 578.00 
C 477.26 577.20 481.57 574.16 482.00 578.00
M 469.00 599.00 
C 470.79 600.79 468.23 598.23 469.00 599.00
M 462.00 611.00 
C 462.74 615.53 458.41 613.12 462.00 611.00
M 598.00 617.00 
C 598.74 621.53 594.41 619.12 598.00 617.00
M 594.00 624.00 
C 593.30 630.58 588.79 627.48 594.00 624.00
M 589.00 633.00 
C 589.74 637.53 585.41 635.12 589.00 633.00
M 445.00 641.00 
C 446.79 642.79 444.23 640.23 445.00 641.00
M 582.00 645.00 
C 582.47 650.37 578.09 647.81 582.00 645.00
M 437.00 655.00 
C 438.79 656.79 436.23 654.23 437.00 655.00
M 430.00 667.00 
C 431.79 668.79 429.23 666.23 430.00 667.00
M 569.00 668.00 
C 569.74 672.53 565.41 670.12 569.00 668.00
M 421.00 683.00 
C 422.79 684.79 420.23 682.23 421.00 683.00
M 405.00 711.00 
C 406.79 712.79 404.23 710.23 405.00 711.00
M 914.00 716.00 
C 914.74 716.74 913.18 715.18 914.00 716.00
M 536.00 726.00 
C 536.74 730.53 532.41 728.12 536.00 726.00
M 385.00 743.00 
C 385.58 743.05 386.25 745.19 384.87 744.92 C 383.48 744.65 384.11 742.92 385.00 743.00
M 385.00 746.00 
C 386.79 747.79 384.23 745.23 385.00 746.00
M 514.00 764.00 
C 515.84 757.63 519.75 762.73 514.00 764.00
M 508.00 775.00 
C 508.74 775.74 507.19 774.18 508.00 775.00
M 507.00 777.00 
C 507.74 781.53 503.41 779.12 507.00 777.00
M 359.00 794.00 
C 359.00 797.67 359.00 801.33 359.00 805.00
C 357.44 802.39 357.28 796.54 359.00 794.00
M 496.00 799.00 
C 496.34 802.69 494.38 803.63 493.00 803.00
C 490.96 801.69 493.61 797.96 496.00 799.00
M 480.00 820.00 
C 479.63 823.80 475.30 820.82 480.00 820.00
M 471.00 824.00 
C 439.46 825.81 404.05 825.46 373.00 824.00
C 377.85 821.24 386.01 824.83 394.00 824.00 C 401.99 823.17 411.73 824.40 420.00 824.00 C 428.27 823.60 436.59 824.20 445.00 824.00 C 453.41 823.80 462.53 824.15 471.00 824.00
M 476.00 822.00 
C 476.74 822.74 475.19 821.18 476.00 822.00
M 1047.00 832.00 
C 1044.21 831.56 1042.89 828.99 1040.00 832.00
C 1039.69 826.95 1046.71 828.27 1047.00 832.00 Z"/>
</g>
<g fill="#1C213E" fill-opacity="0.48" stroke="None">
<path d="
M 723.00 174.00 
C 721.34 172.34 723.61 174.61 723.00 174.00 Z"/>
</g>
<g fill="#1C213B" fill-opacity="0.51" stroke="None">
<path d="
M 733.00 174.00 
C 729.02 173.19 731.09 176.49 733.00 174.00 Z"/>
</g>
<g fill="#FFFFFF" fill-opacity="1.00" stroke="None">
<path d="
M 500.00 547.00 
C 499.78 547.14 500.00 548.00 500.00 548.00
C 497.24 553.32 493.75 559.76 490.77 564.77 C 487.79 569.78 484.29 575.83 481.31 580.31 C 478.32 584.78 476.13 594.57 472.00 592.00
C 473.18 598.54 466.98 605.41 463.30 612.30 C 459.63 619.20 455.08 626.41 451.30 633.30 C 447.53 640.20 443.58 646.92 439.77 653.77 C 435.96 660.62 431.33 667.89 427.77 674.77 C 424.21 681.65 419.75 688.43 415.92 694.92 C 412.10 701.42 408.09 710.07 403.92 715.92 C 399.76 721.78 397.16 733.22 392.00 732.00
C 393.29 736.17 390.03 741.04 387.30 745.31 C 384.58 749.57 381.99 755.51 379.30 759.30 C 376.62 763.10 374.37 772.18 372.00 767.00
C 371.09 780.30 352.72 794.69 363.00 811.00
C 363.23 811.36 363.00 812.00 363.00 812.00
C 371.73 821.94 382.98 823.58 396.00 823.00 C 409.02 822.42 427.20 823.56 440.00 823.00 C 452.80 822.44 468.82 825.57 478.77 818.77 C 488.72 811.97 490.11 801.38 496.25 792.25 C 502.38 783.11 506.70 773.43 512.22 764.22 C 517.75 755.02 522.70 746.36 528.08 737.08 C 533.45 727.79 537.93 717.98 544.08 709.08 C 550.22 700.18 553.69 689.32 559.30 680.30 C 564.90 671.28 570.10 662.63 575.25 653.25 C 580.40 643.87 585.97 634.72 591.23 625.23 C 596.49 615.74 601.67 606.52 607.23 597.23 C 612.79 587.94 617.58 578.33 622.75 569.75 C 627.91 561.16 633.85 550.37 639.08 542.08 C 644.30 533.78 648.23 520.62 655.00 519.00
C 657.45 505.74 668.44 490.73 675.75 476.75 C 683.06 462.78 692.63 449.39 700.08 435.08 C 707.53 420.77 716.60 407.42 724.00 393.00
C 726.37 395.41 726.29 392.54 729.00 396.00
C 727.78 393.93 725.31 391.85 726.00 390.00
C 730.51 393.61 733.54 399.76 736.75 405.25 C 739.97 410.73 743.30 416.77 746.77 422.23 C 750.24 427.69 753.18 433.79 756.77 439.23 C 760.36 444.67 762.64 450.23 766.30 455.70 C 769.97 461.17 772.62 467.11 776.30 472.70 C 779.99 478.29 781.97 483.64 787.75 488.25 C 793.53 492.86 801.01 492.99 809.00 493.00 C 816.99 493.01 827.76 492.65 836.00 493.00 C 844.24 493.35 855.00 492.07 863.00 493.00 C 871.00 493.93 878.76 489.09 883.00 490.00
C 891.69 478.59 901.54 459.95 892.31 445.70 C 883.07 431.44 877.75 418.60 869.30 404.70 C 860.86 390.79 853.93 377.88 845.92 364.08 C 837.92 350.27 830.72 337.06 822.77 323.23 C 814.82 309.40 807.03 295.63 799.31 281.70 C 791.58 267.76 783.58 254.89 776.25 240.75 C 768.93 226.61 759.90 214.58 753.25 199.75 C 746.61 184.92 733.87 169.67 715.00 176.00
C 717.14 178.96 707.87 185.19 705.92 189.92 C 703.98 194.66 699.81 205.52 696.00 203.00
C 697.30 208.81 691.60 215.14 688.30 221.30 C 685.01 227.47 680.94 234.46 677.30 240.30 C 673.67 246.15 670.17 254.06 666.30 259.30 C 662.44 264.54 659.91 275.80 655.00 274.00
C 654.66 282.27 646.75 297.39 639.00 302.00
C 639.66 304.42 638.47 312.53 635.00 309.00
C 636.04 315.83 629.09 323.06 625.31 330.30 C 621.52 337.55 616.98 345.69 612.77 352.77 C 608.56 359.85 604.05 368.03 599.77 374.77 C 595.49 381.51 592.59 392.85 586.00 392.00
C 588.61 399.77 579.78 408.88 575.31 417.30 C 570.83 425.73 565.25 435.11 560.75 443.75 C 556.25 452.39 549.85 460.66 545.31 469.31 C 540.76 477.95 535.60 487.24 530.30 495.30 C 525.01 503.37 521.39 514.12 515.31 521.31 C 509.22 528.49 507.86 542.08 500.00 547.00 Z"/>
</g>
<g fill="#404040" fill-opacity="0.02" stroke="None">
<path d="
M 745.00 181.00 
C 744.18 180.18 745.74 181.74 745.00 181.00 Z"/>
</g>
<g fill="#062149" fill-opacity="0.26" stroke="None">
<path d="
M 768.00 218.00 
C 762.68 217.57 767.47 223.40 768.00 218.00 Z"/>
</g>
<g fill="#051658" fill-opacity="0.34" stroke="None">
<path d="
M 682.00 229.00 
C 681.23 228.23 683.79 230.79 682.00 229.00 Z"/>
</g>
<g fill="#252740" fill-opacity="0.41" stroke="None">
<path d="
M 777.00 237.00 
C 776.23 236.23 778.79 238.79 777.00 237.00 Z"/>
</g>
<g fill="#171B37" fill-opacity="0.51" stroke="None">
<path d="
M 790.00 261.00 
C 788.66 258.15 787.18 255.16 785.00 253.00
C 785.24 255.97 787.27 260.19 790.00 261.00 Z"/>
</g>
<g fill="#2A2A6A" fill-opacity="0.05" stroke="None">
<path d="
M 666.00 257.00 
C 665.18 256.18 666.74 257.74 666.00 257.00 Z"/>
</g>
<g fill="#000080" fill-opacity="0.01" stroke="None">
<path d="
M 657.00 272.00 
C 656.18 271.18 657.74 272.74 657.00 272.00 Z"/>
</g>
<g fill="#204060" fill-opacity="0.03" stroke="None">
<path d="
M 807.00 290.00 
C 806.18 289.18 807.74 290.74 807.00 290.00 Z"/>
</g>
<g fill="#151D47" fill-opacity="0.49" stroke="None">
<path d="
M 808.00 292.00 
C 807.23 291.23 809.79 293.79 808.00 292.00 Z"/>
</g>
<g fill="#1F2343" fill-opacity="0.42" stroke="None">
<path d="
M 644.00 295.00 
C 643.23 294.23 645.79 296.79 644.00 295.00 Z"/>
</g>
<g fill="#172A3D" fill-opacity="0.48" stroke="None">
<path d="
M 638.00 306.00 
C 634.15 307.49 638.06 310.33 638.00 306.00 Z"/>
</g>
<g fill="#1E2040" fill-opacity="0.38" stroke="None">
<path d="
M 820.00 313.00 
C 819.23 312.23 821.79 314.79 820.00 313.00 Z"/>
</g>
<g fill="#151C3C" fill-opacity="0.51" stroke="None">
<path d="
M 825.00 323.00 
C 823.45 316.94 820.17 321.65 825.00 323.00 Z"/>
</g>
<g fill="#2A2F40" fill-opacity="0.33" stroke="None">
<path d="
M 828.00 327.00 
C 827.23 326.23 829.79 328.79 828.00 327.00 Z"/>
</g>
<g fill="#242846" fill-opacity="0.40" stroke="None">
<path d="
M 621.00 335.00 
C 620.23 334.23 622.79 336.79 621.00 335.00 Z"/>
</g>
<g fill="#0A1A52" fill-opacity="0.04" stroke="None">
<path d="
M 837.00 345.00 
C 837.85 350.55 842.36 344.11 837.00 345.00 Z"/>
</g>
<g fill="#1D2136" fill-opacity="0.49" stroke="None">
<path d="
M 850.00 367.00 
C 848.45 360.94 845.17 365.65 850.00 367.00 Z"/>
</g>
<g fill="#202145" fill-opacity="0.30" stroke="None">
<path d="
M 853.00 371.00 
C 852.23 370.23 854.79 372.79 853.00 371.00 Z"/>
</g>
<g fill="#050614" fill-opacity="0.80" stroke="None">
<path d="
M 729.00 396.00 
C 730.36 398.98 732.85 401.78 731.00 405.00
C 736.90 405.64 740.61 416.74 744.25 422.75 C 747.89 428.77 755.45 436.17 752.00 443.00
C 758.68 440.77 758.44 447.53 763.08 453.92 C 767.73 460.31 767.29 461.54 772.61 470.25 C 777.92 478.96 784.48 493.27 798.00 494.00
C 822.17 495.31 846.79 494.00 871.00 494.00
C 871.50 494.00 872.50 494.00 873.00 494.00
C 873.73 493.81 874.84 493.20 876.00 493.00
C 878.83 492.51 880.74 491.93 883.00 490.00
C 878.76 489.09 871.00 493.93 863.00 493.00 C 855.00 492.07 844.24 493.35 836.00 493.00 C 827.76 492.65 816.99 493.01 809.00 493.00 C 801.01 492.99 793.53 492.86 787.75 488.25 C 781.97 483.64 779.99 478.29 776.30 472.70 C 772.62 467.11 769.97 461.17 766.30 455.70 C 762.64 450.23 760.36 444.67 756.77 439.23 C 753.18 433.79 750.24 427.69 746.77 422.23 C 743.30 416.77 739.97 410.73 736.75 405.25 C 733.54 399.76 730.51 393.61 726.00 390.00
C 725.31 391.85 727.78 393.93 729.00 396.00 Z"/>
</g>
<g fill="#292C5C" fill-opacity="0.32" stroke="None">
<path d="
M 877.00 413.00 
C 876.22 412.23 878.79 414.79 877.00 413.00 Z"/>
</g>
<g fill="#1B1F4E" fill-opacity="0.33" stroke="None">
<path d="
M 881.00 420.00 
C 880.23 419.23 882.79 421.79 881.00 420.00 Z"/>
</g>
<g fill="#1D1E3E" fill-opacity="0.41" stroke="None">
<path d="
M 886.00 429.00 
C 885.22 428.23 887.79 430.79 886.00 429.00 Z"/>
</g>
<g fill="#0E153A" fill-opacity="0.22" stroke="None">
<path d="
M 687.00 466.00 
C 686.25 460.52 682.04 467.10 687.00 466.00 Z"/>
</g>
<g fill="#121B33" fill-opacity="0.30" stroke="None">
<path d="
M 897.00 469.00 
C 893.41 471.12 897.74 473.53 897.00 469.00 Z"/>
</g>
<g fill="#1D304F" fill-opacity="0.31" stroke="None">
<path d="
M 542.00 472.00 
C 541.23 471.23 543.79 473.79 542.00 472.00 Z"/>
</g>
<g fill="#0E1128" fill-opacity="0.31" stroke="None">
<path d="
M 678.00 477.00 
C 674.41 479.12 678.74 481.53 678.00 477.00 Z"/>
</g>
<g fill="#0B143D" fill-opacity="0.35" stroke="None">
<path d="
M 676.00 486.00 
C 675.62 478.93 670.20 486.31 676.00 486.00 Z"/>
</g>
<g fill="#23254B" fill-opacity="0.38" stroke="None">
<path d="
M 534.00 486.00 
C 533.23 485.23 535.79 487.79 534.00 486.00 Z"/>
</g>
<g fill="#262A59" fill-opacity="0.46" stroke="None">
<path d="
M 873.00 494.00 
C 874.52 493.99 875.02 493.32 876.00 493.00
C 874.84 493.20 873.73 493.81 873.00 494.00 Z"/>
</g>
<g fill="#2C3262" fill-opacity="0.27" stroke="None">
<path d="
M 871.00 494.00 
C 846.79 494.00 822.17 495.31 798.00 494.00
C 808.62 495.72 823.68 495.90 835.00 495.00 C 846.32 494.10 861.04 498.24 871.00 494.00 Z"/>
</g>
<g fill="#262A52" fill-opacity="0.34" stroke="None">
<path d="
M 523.00 505.00 
C 522.23 504.23 524.79 506.79 523.00 505.00 Z"/>
</g>
<g fill="#171A36" fill-opacity="0.25" stroke="None">
<path d="
M 662.00 505.00 
C 658.41 507.12 662.74 509.53 662.00 505.00 Z"/>
</g>
<g fill="#15182B" fill-opacity="0.76" stroke="None">
<path d="
M 651.00 524.00 
C 650.18 523.18 651.74 524.74 651.00 524.00 Z"/>
</g>
<g fill="#081339" fill-opacity="0.22" stroke="None">
<path d="
M 650.00 526.00 
C 646.41 528.12 650.74 530.53 650.00 526.00 Z"/>
</g>
<g fill="#222537" fill-opacity="0.45" stroke="None">
<path d="
M 500.00 548.00 
C 500.00 548.00 499.78 547.14 500.00 547.00
C 499.00 544.20 497.65 547.28 500.00 548.00 Z"/>
</g>
<g fill="#1F2246" fill-opacity="0.39" stroke="None">
<path d="
M 496.00 552.00 
C 495.22 551.23 497.79 553.79 496.00 552.00 Z"/>
</g>
<g fill="#22C55E" fill-opacity="0.98" stroke="None">
<path d="
M 947.00 768.00 
C 948.11 769.71 949.03 771.24 950.00 773.00
C 957.08 785.84 963.48 794.32 970.23 807.77 C 976.98 821.22 988.35 827.80 1004.00 826.00 C 1019.65 824.20 1041.68 827.02 1057.00 826.00 C 1072.32 824.98 1084.86 830.28 1095.75 816.75 C 1106.63 803.21 1092.83 791.32 1088.00 779.00
C 1087.83 778.57 1088.00 778.00 1088.00 778.00
C 1080.31 773.19 1078.68 760.15 1072.75 753.25 C 1066.83 746.34 1062.92 735.76 1057.77 728.23 C 1052.62 720.70 1048.59 711.46 1044.00 705.00
C 1043.08 703.70 1042.74 702.42 1042.00 701.00
C 1036.09 692.65 1031.18 683.10 1025.77 674.23 C 1020.36 665.36 1015.66 656.63 1010.30 647.70 C 1004.94 638.76 1000.11 630.37 994.75 621.25 C 989.40 612.12 984.27 604.73 978.92 595.08 C 973.57 585.44 969.32 579.12 963.25 568.75 C 957.18 558.39 942.90 558.30 931.00 559.00 C 919.10 559.70 902.73 558.59 891.03 558.98 C 879.32 559.37 866.33 558.67 855.25 558.80 C 844.16 558.94 829.29 556.92 822.25 567.25 C 815.22 577.59 812.65 583.06 806.92 593.92 C 801.18 604.77 797.05 608.34 791.77 620.77 C 786.49 633.20 810.33 629.87 821.00 630.00 C 831.67 630.13 850.84 628.40 860.92 632.08 C 871.00 635.75 874.14 647.11 879.70 655.30 C 885.25 663.50 890.08 673.33 895.23 681.77 C 900.38 690.21 906.53 699.36 911.08 707.92 C 915.63 716.48 924.87 726.06 923.00 734.00
C 929.92 734.54 931.87 743.54 935.70 749.31 C 939.52 755.07 943.17 762.07 947.00 768.00 Z"/>
</g>

<g fill="#1B1D39" fill-opacity="0.70" stroke="None">
<path d="
M 626.00 568.00 
C 625.18 567.18 626.74 568.74 626.00 568.00 Z"/>
</g>
<g fill="#0B1541" fill-opacity="0.18" stroke="None">
<path d="
M 625.00 570.00 
C 621.41 572.12 625.74 574.53 625.00 570.00 Z"/>
</g>
<g fill="#091139" fill-opacity="0.14" stroke="None">
<path d="
M 482.00 578.00 
C 481.57 574.16 477.26 577.20 482.00 578.00 Z"/>
</g>
<g fill="#0A185B" fill-opacity="0.36" stroke="None">
<path d="
M 469.00 599.00 
C 468.23 598.23 470.79 600.79 469.00 599.00 Z"/>
</g>
<g fill="#23273B" fill-opacity="0.41" stroke="None">
<path d="
M 462.00 611.00 
C 458.41 613.12 462.74 615.53 462.00 611.00 Z"/>
</g>
<g fill="#111428" fill-opacity="0.36" stroke="None">
<path d="
M 598.00 617.00 
C 594.41 619.12 598.74 621.53 598.00 617.00 Z"/>
</g>
<g fill="#21243D" fill-opacity="0.52" stroke="None">
<path d="
M 594.00 624.00 
C 588.79 627.48 593.30 630.58 594.00 624.00 Z"/>
</g>
<g fill="#1D1F30" fill-opacity="0.26" stroke="None">
<path d="
M 589.00 633.00 
C 585.41 635.12 589.74 637.53 589.00 633.00 Z"/>
</g>
<g fill="#2C2F3D" fill-opacity="0.32" stroke="None">
<path d="
M 445.00 641.00 
C 444.23 640.23 446.79 642.79 445.00 641.00 Z"/>
</g>
<g fill="#0B143D" fill-opacity="0.30" stroke="None">
<path d="
M 582.00 645.00 
C 578.09 647.81 582.47 650.37 582.00 645.00 Z"/>
</g>
<g fill="#292B4A" fill-opacity="0.41" stroke="None">
<path d="
M 437.00 655.00 
C 436.23 654.23 438.79 656.79 437.00 655.00 Z"/>
</g>
<g fill="#2E303C" fill-opacity="0.29" stroke="None">
<path d="
M 430.00 667.00 
C 429.23 666.23 431.79 668.79 430.00 667.00 Z"/>
</g>
<g fill="#0F1125" fill-opacity="0.37" stroke="None">
<path d="
M 569.00 668.00 
C 565.41 670.12 569.74 672.53 569.00 668.00 Z"/>
</g>
<g fill="#222545" fill-opacity="0.34" stroke="None">
<path d="
M 421.00 683.00 
C 420.23 682.23 422.79 684.79 421.00 683.00 Z"/>
</g>
<g fill="#751F8F" fill-opacity="0.01" stroke="None">
<path d="
M 1042.00 701.00 
C 1042.74 702.42 1043.08 703.70 1044.00 705.00
C 1047.67 703.74 1042.80 700.46 1046.00 697.00
C 1043.79 697.81 1043.71 701.28 1042.00 698.00
C 1042.07 698.99 1041.91 700.01 1042.00 701.00 Z"/>
</g>
<g fill="#1F2244" fill-opacity="0.40" stroke="None">
<path d="
M 405.00 711.00 
C 404.23 710.23 406.79 712.79 405.00 711.00 Z"/>
</g>
<g fill="#8080FF" fill-opacity="0.01" stroke="None">
<path d="
M 914.00 716.00 
C 913.18 715.18 914.74 716.74 914.00 716.00 Z"/>
</g>
<g fill="#0D132C" fill-opacity="0.35" stroke="None">
<path d="
M 536.00 726.00 
C 532.41 728.12 536.74 730.53 536.00 726.00 Z"/>
</g>
<g fill="#050B36" fill-opacity="0.01" stroke="None">
<path d="
M 385.00 743.00 
C 384.11 742.92 383.48 744.65 384.87 744.92 C 386.25 745.19 385.58 743.05 385.00 743.00 Z"/>
</g>
<g fill="#07155D" fill-opacity="0.28" stroke="None">
<path d="
M 385.00 746.00 
C 384.23 745.23 386.79 747.79 385.00 746.00 Z"/>
</g>
<g fill="#090F24" fill-opacity="0.26" stroke="None">
<path d="
M 514.00 764.00 
C 519.75 762.73 515.84 757.63 514.00 764.00 Z"/>
</g>
<g fill="#5A2789" fill-opacity="0.01" stroke="None">
<path d="
M 950.00 773.00 
C 949.03 771.24 948.11 769.71 947.00 768.00
C 946.00 768.00 945.00 768.00 944.00 768.00
C 947.77 769.73 941.55 772.94 945.00 776.00
C 946.13 774.01 949.78 775.19 950.00 773.00 Z"/>
</g>
<g fill="#0F0F26" fill-opacity="0.87" stroke="None">
<path d="
M 508.00 775.00 
C 507.19 774.18 508.74 775.74 508.00 775.00 Z"/>
</g>
<g fill="#9B34B3" fill-opacity="0.00" stroke="None">
<path d="
M 1088.00 778.00 
C 1088.00 778.00 1087.83 778.57 1088.00 779.00
C 1090.33 781.46 1091.28 779.93 1093.00 778.00
C 1090.40 778.32 1088.92 774.04 1088.00 778.00 Z"/>
</g>
<g fill="#121327" fill-opacity="0.28" stroke="None">
<path d="
M 507.00 777.00 
C 503.41 779.12 507.74 781.53 507.00 777.00 Z"/>
</g>
<g fill="#1F2338" fill-opacity="0.45" stroke="None">
<path d="
M 359.00 794.00 
C 357.28 796.54 357.44 802.39 359.00 805.00
C 359.00 801.33 359.00 797.67 359.00 794.00 Z"/>
</g>
<g fill="#04133D" fill-opacity="0.22" stroke="None">
<path d="
M 496.00 799.00 
C 493.61 797.96 490.96 801.69 493.00 803.00
C 494.38 803.63 496.34 802.69 496.00 799.00 Z"/>
</g>
<g fill="#171828" fill-opacity="0.60" stroke="None">
<path d="
M 363.00 812.00 
C 363.00 812.00 363.23 811.36 363.00 811.00
C 359.44 813.63 369.15 820.91 373.00 822.00
C 370.47 818.18 365.18 816.44 363.00 812.00 Z"/>
</g>
<g fill="#13162E" fill-opacity="0.16" stroke="None">
<path d="
M 480.00 820.00 
C 475.30 820.82 479.63 823.80 480.00 820.00 Z"/>
</g>
<g fill="#24283D" fill-opacity="0.29" stroke="None">
<path d="
M 471.00 824.00 
C 462.53 824.15 453.41 823.80 445.00 824.00 C 436.59 824.20 428.27 823.60 420.00 824.00 C 411.73 824.40 401.99 823.17 394.00 824.00 C 386.01 824.83 377.85 821.24 373.00 824.00
C 404.05 825.46 439.46 825.81 471.00 824.00 Z"/>
</g>
<g fill="#212445" fill-opacity="0.27" stroke="None">
<path d="
M 476.00 822.00 
C 475.19 821.18 476.74 822.74 476.00 822.00 Z"/>
</g>
<g fill="#86299B" fill-opacity="0.00" stroke="None">
<path d="
M 1047.00 832.00 
C 1046.71 828.27 1039.69 826.95 1040.00 832.00
C 1042.89 828.99 1044.21 831.56 1047.00 832.00 Z"/>
</g>
</svg>
